<svg xmlns="http://www.w3.org/2000/svg" width="256" height="256"><path fill-opacity=".016" d="M0 128.004v128.004l128.25-.254 128.25-.254.254-127.75L257.008 0H0v128.004m.485.496c0 70.4.119 99.053.265 63.672.146-35.38.146-92.98 0-128C.604 29.153.485 58.1.485 128.5" fill="#1976D2" fill-rule="evenodd"/><path fill-opacity=".123" d="M154.801 69.114c-2.641 2.812-4.801 5.512-4.801 6 0 .499 16.124.886 36.907.886h36.907l4.166-4.977c2.292-2.737 3.882-5.437 3.534-6-.412-.667-13.047-1.023-36.272-1.023h-35.64l-4.801 5.114m-14.089 15.67c-2.591 2.632-4.712 5.107-4.712 5.5 0 .394 16.641.716 36.979.716h36.98l4.27-4.609c2.349-2.535 4.421-5.01 4.604-5.5.192-.511-15.389-.891-36.537-.891h-36.871l-4.713 4.784M42.474 102.75c-13.589 9.131-19.061 13.361-19.281 14.902-.258 1.814 4.383 5.316 29.485 22.25L82.469 160h31.218c22.106 0 31.986-.349 33.846-1.197 1.444-.658 8.722-7.971 16.173-16.25l13.547-15.053-37.077-.262-37.077-.262-.299-5.738-.3-5.738-18.974-12.75C73.091 95.737 63.854 90 63 90c-.854 0-10.091 5.737-20.526 12.75m83.619-1.861c-2.251 2.689-4.093 5.169-4.093 5.512 0 .343 16.704.505 37.121.361l37.12-.262 4.509-5.25 4.509-5.25H130.186l-4.093 4.889m-13.381 14.895c-2.591 2.632-4.712 5.107-4.712 5.5 0 .394 16.689.716 37.088.716h37.087l4.373-4.75c2.405-2.612 4.39-5.088 4.412-5.5.022-.412-16.514-.75-36.748-.75h-36.787l-4.713 4.784M49 117.852C49 118.727 84.979 143 86.277 143c.397 0 .723-5.85.723-13v-13H68c-10.45 0-19 .383-19 .852M0 176.171c0 .491 1.912 4.262 4.25 8.38 3.175 5.593 4.724 7.418 6.124 7.218 1.85-.266 10.841-14.557 10.018-15.925-1.105-1.838-4.751.932-6.958 5.285-1.357 2.679-2.657 4.871-2.888 4.871-.232 0-1.622-2.207-3.09-4.904-1.795-3.298-3.453-5.053-5.063-5.361-1.316-.252-2.393-.056-2.393.436M25 184c0 7.333.167 8 2 8s2-.667 2-8-.167-8-2-8-2 .667-2 8m10 0v8h8.333c8.762 0 9.866-.319 8.991-2.598-.377-.983-2.298-1.402-6.431-1.402-4.572 0-5.893-.336-5.893-1.5 0-1.048 1.056-1.5 3.5-1.5s3.5-.452 3.5-1.5-1.056-1.5-3.5-1.5-3.5-.452-3.5-1.5c0-1.167 1.333-1.5 6-1.5s6-.333 6-1.5c0-1.216-1.611-1.5-8.5-1.5H35v8m19.244-6.75c.226.688 2.063 1.39 4.083 1.56l3.673.311v6.439c0 5.773.207 6.44 2 6.44 1.795 0 2-.667 2-6.5V179h4c2.889 0 4-.417 4-1.5 0-1.234-1.787-1.5-10.083-1.5-7.619 0-9.983.305-9.673 1.25M77 184c0 7.333.167 8 2 8 1.738 0 2-.667 2-5.087v-5.086l6.087 5.086c3.349 2.798 6.949 5.087 8 5.087 1.724 0 1.913-.789 1.913-8 0-7.819-.055-8-2.445-8-2.188 0-2.478.476-2.75 4.514l-.305 4.514-5.493-4.514C77.921 173.869 77 174.226 77 184m28.09-.547c-2.249 4.099-4.09 7.699-4.09 8 0 1.265 4.111.42 4.638-.953.825-2.149 10.222-2.073 11.808.095.641.877 2.139 1.44 3.328 1.25 2.062-.329 1.953-.706-2.34-8.095-6.084-10.472-7.739-10.509-13.344-.297M127 184c0 7.333.167 8 2 8 1.714 0 2-.667 2-4.661v-4.661l2.75 3.625c1.512 1.993 3.241 3.641 3.84 3.661.6.02 2.287-1.646 3.75-3.702l2.66-3.738v4.738c0 4.387.185 4.738 2.5 4.738 2.458 0 2.5-.133 2.5-8 0-7.711-.084-8-2.33-8-1.62 0-3.325 1.384-5.586 4.532l-3.254 4.532-3.461-4.532c-2.023-2.649-4.272-4.532-5.415-4.532-1.776 0-1.954.729-1.954 8m40-.039c0 7.372.166 8.039 2 8.039 1.556 0 2-.667 2-3 0-2.993.014-3 5.878-3 6.799 0 8.413-1.257 7.94-6.185l-.318-3.315-8.75-.289-8.75-.289v8.039m22.417-6.606c-.286.746-.384 4.233-.218 7.75l.301 6.395h19l.292-7.75.292-7.75h-9.573c-7.133 0-9.706.345-10.094 1.355m27.287-.725c-1.149 1.148-.801 6.873.496 8.17.66.66 3.81 1.2 7 1.2 3.69 0 5.8.417 5.8 1.145 0 .805-2.047.973-6.9.567-3.795-.319-7.154-.325-7.465-.014-.31.311-.105 1.424.457 2.473.898 1.679 2.004 1.873 9.214 1.619l8.194-.29v-9l-6.75-.296c-5.396-.236-6.75-.616-6.75-1.895 0-1.37 1.01-1.514 7.063-1.007 6.286.527 7.028.406 6.739-1.105-.267-1.399-1.737-1.747-8.359-1.984-4.42-.158-8.352.029-8.739.417m20.296.87c0 1.048 1.056 1.5 3.5 1.5h3.5v6.5c0 6.267.09 6.5 2.5 6.5s2.5-.233 2.5-6.5V179h3.5c2.444 0 3.5-.452 3.5-1.5 0-1.228-1.722-1.5-9.5-1.5-7.778 0-9.5.272-9.5 1.5m-66 3.5c0 1.704.667 2 4.5 2s4.5-.296 4.5-2-.667-2-4.5-2-4.5.296-4.5 2m23 2.5v4.5h11v-9h-11v4.5m-83.816-1.004c-1.053 2.311-.947 2.504 1.373 2.504 2.287 0 2.408-.203 1.343-2.25-.644-1.238-1.262-2.364-1.373-2.504-.111-.14-.716.872-1.343 2.25" fill="#1976D2" fill-rule="evenodd"/><path fill-opacity=".191" d="m155.162 69.48-5.662 5.48 37.047.02 37.047.02 3.703-3.792C234.539 63.791 235.45 64 195.912 64h-35.088l-5.662 5.48M140.097 86l-4.216 5h73.806l4.216-5 4.216-5h-73.806l-4.216 5M43.02 102.668c-17.325 11.479-19.092 12.911-18.82 15.25.251 2.161 5.027 5.76 29.3 22.082l29 19.5 30.183.291c24.372.235 30.841.017 33.596-1.134 2.142-.895 8.456-6.961 16.958-16.292l13.546-14.865-37.391-.262-37.392-.262V115.27l-19.071-12.635C72.441 95.686 63.472 90 63 90c-.472 0-9.463 5.701-19.98 12.668M126.5 101l-4.925 5H195.424l4.288-4.208c2.358-2.315 4.288-4.565 4.288-5 0-.436-16.329-.792-36.288-.792h-36.287l-4.925 5m-13.818 15.476-3.741 4.475 36.583.275 36.582.274 2.226-2.5a238.04 238.04 0 0 0 4.102-4.75l1.876-2.25h-73.886l-3.742 4.476m-63.328 1.045c-.331.861-.433 1.719-.228 1.906C51.758 121.829 85.288 143 86.461 143c1.397 0 1.562-1.663 1.318-13.25L87.5 116.5l-18.773-.272c-16.277-.236-18.853-.064-19.373 1.293M3.557 182.75c4.527 8.193 5.324 9.25 6.975 9.25C11.601 192 20 178.292 20 176.547c0-.301-.792-.547-1.761-.547-1.097 0-2.904 2.064-4.796 5.479l-3.035 5.48-2.954-5.476c-2.279-4.225-3.487-5.477-5.29-5.48-2.31-.003-2.295.072 1.393 6.747M25 184c0 7.333.167 8 2 8s2-.667 2-8-.167-8-2-8-2 .667-2 8m10 0v8h8.5c6.889 0 8.5-.284 8.5-1.5 0-1.167-1.333-1.5-6-1.5-5.333 0-6-.222-6-2 0-1.619.667-2 3.5-2 2.444 0 3.5-.452 3.5-1.5s-1.056-1.5-3.5-1.5-3.5-.452-3.5-1.5c0-1.167 1.333-1.5 6-1.5s6-.333 6-1.5c0-1.216-1.611-1.5-8.5-1.5H35v8m20-6.5c0 1.048 1.056 1.5 3.5 1.5H62v6.5c0 5.833.205 6.5 2 6.5 1.793 0 2-.667 2-6.44v-6.439l3.673-.311c2.02-.17 3.857-.872 4.083-1.56.309-.942-1.954-1.25-9.173-1.25-7.852 0-9.583.271-9.583 1.5m22 6.5c0 7.262.18 8 1.948 8 1.631 0 1.997-.815 2.25-5.022l.302-5.023 6 4.997c3.3 2.749 6.563 5.009 7.25 5.023.898.018 1.25-2.228 1.25-7.975 0-6.316-.305-8-1.448-8-1.037 0-1.533 1.461-1.75 5.152l-.302 5.151-6-5.142c-8.57-7.346-9.5-7.068-9.5 2.839m28.5-.749c-2.2 3.98-4.15 7.577-4.333 7.993-.184.416.618.756 1.781.756 1.163 0 2.374-.675 2.69-1.5.412-1.072 2.086-1.5 5.862-1.5 3.776 0 5.45.428 5.862 1.5.316.825 1.681 1.5 3.032 1.5 2.437 0 2.42-.067-2.075-8-5.956-10.513-7.377-10.596-12.819-.749M127 184c0 7.333.167 8 2 8 1.717 0 2.002-.672 2.015-4.75l.015-4.75 3.427 4c3.334 3.891 3.468 3.945 4.904 2 4.782-6.478 4.573-6.421 4.607-1.25.027 4.073.317 4.75 2.032 4.75 1.833 0 2-.667 2-8s-.167-8-2-8c-1.1 0-2.007.338-2.015.75-.008.412-1.477 2.479-3.265 4.591l-3.25 3.841-3.297-4.591c-1.969-2.741-4.078-4.591-5.235-4.591-1.756 0-1.938.752-1.938 8m40 0c0 7.333.167 8 2 8 1.556 0 2-.667 2-3 0-2.989.022-3 5.8-3 6.229 0 8.2-1.11 8.2-4.618 0-4.995-.691-5.382-9.607-5.382H167v8m22.621-6.454c-.897 2.337-.735 11.727.229 13.245.593.936 3.277 1.211 9.735 1l8.915-.291v-15l-9.129-.286c-7.66-.24-9.229-.025-9.75 1.332m26.808.882c-.335 1.335-.314 3.36.048 4.5.576 1.813 1.461 2.072 7.09 2.072 5.766 0 6.433.207 6.433 2 0 1.73-.667 2-4.941 2-2.718 0-5.219-.45-5.559-1-1.226-1.984-3.649-1.071-3.32 1.25.303 2.132.767 2.25 8.82 2.25 8.163 0 8.513-.093 8.833-2.352.183-1.293.062-3.431-.269-4.75-.558-2.222-1.077-2.398-7.083-2.398-5.348 0-6.481-.288-6.481-1.645 0-1.428.936-1.567 7.087-1.051 6.104.512 7.006.382 6.5-.937-.323-.842-.587-1.719-.587-1.949 0-.23-3.591-.418-7.981-.418-7.616 0-8.009.111-8.59 2.428M237 177.5c0 1.083 1.111 1.5 4 1.5h4v6.5c0 5.833.205 6.5 2 6.5s2-.667 2-6.5V179h3.5c2.444 0 3.5-.452 3.5-1.5 0-1.228-1.722-1.5-9.5-1.5-7.778 0-9.5.272-9.5 1.5m-66 3.5c0 1.893.488 2.078 4.75 1.805 3.42-.22 4.75-.725 4.75-1.805s-1.33-1.585-4.75-1.805c-4.262-.273-4.75-.088-4.75 1.805m22.195 2.75.305 4.75 5.75.3 5.75.3V179h-12.11l.305 4.75m-83.063-1.996c-1.583 2.957-1.461 3.246 1.368 3.246 2.836 0 3.096-.802 1.132-3.489-1.325-1.812-1.405-1.805-2.5.243" fill="#1976D2" fill-rule="evenodd"/><path fill-opacity=".697" d="M1.24 178.25c.808 1.238 2.928 4.838 4.71 8 1.783 3.162 3.76 5.75 4.395 5.749.635-.001 3.122-3.644 5.525-8.096 3.63-6.724 4.053-8.035 2.5-7.737-1.028.197-3.011 2.469-4.406 5.049-1.394 2.579-2.809 4.963-3.142 5.297-.334.334-2.039-1.895-3.788-4.953C4.807 177.668 3.241 176 1.812 176c-1.886 0-1.93.171-.572 2.25M25 184.073c0 7.15.2 8.035 1.75 7.739 1.456-.277 1.799-1.635 2.042-8.073.273-7.221.155-7.739-1.75-7.739-1.887 0-2.042.611-2.042 8.073M36 184v8h8c6.444 0 8-.292 8-1.5 0-1.179-1.389-1.5-6.5-1.5-5.766 0-6.5-.219-6.5-1.94 0-1.519.812-2.006 3.75-2.25 2.063-.17 3.75-.76 3.75-1.31s-1.687-1.14-3.75-1.31c-2.389-.198-3.75-.816-3.75-1.703 0-1.006 1.708-1.474 6.171-1.689 3.82-.185 6.327-.774 6.583-1.548.307-.931-1.651-1.25-7.671-1.25H36v8m19-6.5c0 1.044 1.05 1.5 3.452 1.5h3.453l.297 6.24c.239 5.006.644 6.306 2.048 6.573 1.523.29 1.75-.519 1.75-6.24V179h3.5c2.444 0 3.5-.452 3.5-1.5 0-1.222-1.667-1.5-9-1.5s-9 .278-9 1.5m23 6.5c0 6.444.292 8 1.5 8 1.154 0 1.5-1.287 1.5-5.585v-5.584l6.361 5.584c3.498 3.072 6.873 5.585 7.5 5.585.757 0 1.139-2.682 1.139-8 0-6.444-.292-8-1.5-8-1.154 0-1.5 1.285-1.5 5.563v5.562l-6.557-5.562c-3.606-3.06-6.981-5.563-7.5-5.563-.519 0-.943 3.6-.943 8m30.24-4.75c-7.232 12.222-7.454 12.75-5.35 12.75 1.097 0 2.258-.889 2.61-2 .531-1.673 1.513-2 6-2s5.469.327 6 2c.358 1.129 1.513 2 2.651 2 1.108 0 1.866-.34 1.682-.756-.183-.416-2.133-4.013-4.333-7.993-4.499-8.14-6.34-8.935-9.26-4.001m19.145-1.812c-.303.791-.402 4.242-.218 7.668.44 8.235 2.614 9.193 3.031 1.336l.302-5.689 3.42 4.773 3.419 4.773 1.804-2.227c.992-1.225 2.701-3.43 3.798-4.9l1.996-2.672.031 5.75c.025 4.43.376 5.75 1.532 5.75 1.208 0 1.5-1.556 1.5-8 0-9.586-1.23-10.291-6.107-3.5-1.778 2.475-3.591 4.5-4.031 4.5-.439 0-2.275-2.007-4.08-4.461-3.388-4.605-5.438-5.599-6.397-3.101M167 183.96c0 7.373.166 8.04 2 8.04 1.619 0 2-.667 2-3.5V185h13.115l-.308-4.25-.307-4.25-8.25-.29-8.25-.291v8.041m23.417-6.605c-.286.746-.384 4.233-.218 7.75l.301 6.395 7.845.294c4.923.184 8.368-.141 9.25-.873 1.757-1.458 1.915-12.011.205-13.721-1.754-1.754-16.701-1.62-17.383.155m26.994.016c-.308.803-.414 2.736-.236 4.295.313 2.727.57 2.853 6.816 3.334 5.344.412 6.554.834 6.85 2.388.333 1.75-.197 1.852-7.241 1.4-4.18-.268-7.6-.195-7.6.162 0 2.031 3.082 3.05 9.221 3.05 6.306 0 6.908-.189 7.961-2.5.852-1.87.852-3.13 0-5-1.031-2.264-1.708-2.5-7.161-2.5-4.878 0-6.021-.307-6.021-1.616 0-1.367 1.012-1.553 6.535-1.201 5.502.35 6.488.171 6.239-1.133-.421-2.213-14.535-2.836-15.363-.679M238 177.5c0 1.048 1.056 1.5 3.5 1.5h3.5v6.5c0 5.111.321 6.5 1.5 6.5s1.5-1.389 1.5-6.5V179h4c2.889 0 4-.417 4-1.5 0-1.222-1.667-1.5-9-1.5s-9 .278-9 1.5m-128.057 4.25a605.07 605.07 0 0 0-1.744 3.5c-.201.412 1.247.75 3.218.75 1.971 0 3.583-.214 3.583-.476s-.828-1.837-1.839-3.5l-1.84-3.025-1.378 2.751M171 181c0 1.733.667 2 5 2s5-.267 5-2-.667-2-5-2-5 .267-5 2m22 3v5h12v-10h-12v5" fill="#1976D2" fill-rule="evenodd"/></svg>